<svg width="29" height="29" viewBox="0 0 29 29" fill="none" xmlns="http://www.w3.org/2000/svg">
<path d="M19.212 12.0091H16.8105V8.4069H12.0076V12.0091H9.60616L14.4091 16.812L19.212 12.0091ZM22.8141 18.0127H18.0112C18.0112 18.968 17.6317 19.8843 16.9562 20.5598C16.2806 21.2354 15.3644 21.6149 14.4091 21.6149C13.4537 21.6149 12.5375 21.2354 11.8619 20.5598C11.1864 19.8843 10.8069 18.968 10.8069 18.0127H6.00399V6.00545H22.8141V18.0127ZM22.8141 3.604H6.00399C4.67118 3.604 3.60254 4.68466 3.60254 6.00545V22.8156C3.60254 23.4525 3.85555 24.0633 4.30591 24.5137C4.75627 24.964 5.36708 25.217 6.00399 25.217H22.8141C23.451 25.217 24.0618 24.964 24.5122 24.5137C24.9626 24.0633 25.2156 23.4525 25.2156 22.8156V6.00545C25.2156 5.36855 24.9626 4.75773 24.5122 4.30737C24.0618 3.85701 23.451 3.604 22.8141 3.604Z" fill="black"/>
</svg>
