<svg width="127" height="42" viewBox="0 0 127 42" fill="none" xmlns="http://www.w3.org/2000/svg">
<path d="M37.418 30.7658L30.5327 17.4529C28.8359 14.1721 24.1287 14.2164 22.4939 17.5285L15.9195 30.8489C14.0935 34.5485 17.7894 38.5519 21.6228 37.0268L24.996 35.6847C26.0546 35.2635 27.2336 35.2593 28.2953 35.6728L31.7833 37.0312C35.6515 38.5378 39.325 34.4531 37.418 30.7658Z" fill="#34347B"/>
<rect width="9.49422" height="39.0428" rx="4.74711" transform="matrix(-0.924365 -0.381509 -0.444491 0.895783 26.1303 4.26224)" fill="#34347B"/>
<path d="M51.1289 33L59.4569 8.54487H66.2316L74.5596 33H69.2059L67.6526 28.2081H58.0689L56.4826 33H51.1289ZM59.4899 23.7797H66.2316L62.8608 13.5681L59.4899 23.7797ZM77.7835 33V8.54487H87.6977C89.5043 8.54487 91.0465 8.86433 92.3243 9.50325C93.6242 10.1422 94.6156 11.0234 95.2986 12.147C96.0036 13.2707 96.3561 14.5705 96.3561 16.0466C96.3561 17.6549 95.9485 19.065 95.1334 20.2767C94.3182 21.4664 93.1615 22.3367 91.6634 22.8875L96.984 33H91.3329L86.475 23.5814H82.8728V33H77.7835ZM87.6316 12.9402H82.8728V19.4175H87.6316C88.7552 19.4175 89.6365 19.109 90.2754 18.4921C90.9143 17.8753 91.2338 17.1152 91.2338 16.2119C91.2338 15.2865 90.9143 14.5154 90.2754 13.8986C89.6365 13.2596 88.7552 12.9402 87.6316 12.9402ZM111.68 33.3304C109.653 33.3304 107.868 32.9779 106.326 32.2729C104.784 31.5459 103.484 30.5875 102.427 29.3978C101.391 28.1861 100.609 26.8311 100.08 25.333C99.5734 23.8348 99.3201 22.3036 99.3201 20.7394C99.3201 19.1751 99.5734 17.6549 100.08 16.1788C100.609 14.6807 101.391 13.3367 102.427 12.147C103.484 10.9573 104.784 10.01 106.326 9.30496C107.868 8.57792 109.653 8.2144 111.68 8.2144C113.729 8.2144 115.524 8.57792 117.067 9.30496C118.609 10.01 119.898 10.9573 120.933 12.147C121.969 13.3367 122.74 14.6807 123.246 16.1788C123.775 17.6549 124.04 19.1751 124.04 20.7394C124.04 22.3036 123.775 23.8348 123.246 25.333C122.74 26.8311 121.969 28.1861 120.933 29.3978C119.898 30.5875 118.609 31.5459 117.067 32.2729C115.524 32.9779 113.729 33.3304 111.68 33.3304ZM111.68 28.7368C113.222 28.7368 114.522 28.3513 115.579 27.5802C116.637 26.8091 117.43 25.8177 117.959 24.6059C118.488 23.3721 118.752 22.0833 118.752 20.7394C118.752 19.3954 118.488 18.1176 117.959 16.9059C117.43 15.6941 116.637 14.7027 115.579 13.9316C114.522 13.1605 113.222 12.7749 111.68 12.7749C110.138 12.7749 108.838 13.1605 107.78 13.9316C106.745 14.7027 105.963 15.6941 105.434 16.9059C104.905 18.1176 104.641 19.3954 104.641 20.7394C104.641 22.0833 104.905 23.3721 105.434 24.6059C105.963 25.8177 106.745 26.8091 107.78 27.5802C108.838 28.3513 110.138 28.7368 111.68 28.7368Z" fill="#34347B"/>
</svg>
