<svg width="29" height="29" viewBox="0 0 29 29" fill="none" xmlns="http://www.w3.org/2000/svg">
<path d="M14.5006 4.83189C15.7825 4.83189 17.0119 5.34112 17.9183 6.24754C18.8248 7.15397 19.334 8.38335 19.334 9.66523C19.334 10.9471 18.8248 12.1765 17.9183 13.0829C17.0119 13.9893 15.7825 14.4986 14.5006 14.4986C13.2188 14.4986 11.9894 13.9893 11.083 13.0829C10.1765 12.1765 9.66732 10.9471 9.66732 9.66523C9.66732 8.38335 10.1765 7.15397 11.083 6.24754C11.9894 5.34112 13.2188 4.83189 14.5006 4.83189ZM14.5006 16.9152C19.8415 16.9152 24.1673 19.0781 24.1673 21.7486V24.1652H4.83398V21.7486C4.83398 19.0781 9.15982 16.9152 14.5006 16.9152Z" fill="black"/>
</svg>
