<svg width="34" height="34" viewBox="0 0 34 34" fill="none" xmlns="http://www.w3.org/2000/svg">
<path d="M23.3741 16.9991C23.8392 16.9991 24.2997 16.9075 24.7294 16.7295C25.1591 16.5516 25.5495 16.2907 25.8784 15.9618C26.2073 15.6329 26.4682 15.2425 26.6461 14.8128C26.8241 14.3831 26.9157 13.9226 26.9157 13.4575C26.9157 12.5182 26.5426 11.6173 25.8784 10.9531C25.2142 10.2889 24.3134 9.91581 23.3741 9.91581C22.4348 9.91581 21.5339 10.2889 20.8697 10.9531C20.2055 11.6173 19.8324 12.5182 19.8324 13.4575C19.8324 13.9226 19.924 14.3831 20.102 14.8128C20.28 15.2425 20.5409 15.6329 20.8697 15.9618C21.5339 16.626 22.4348 16.9991 23.3741 16.9991ZM12.7491 15.5825C13.8762 15.5825 14.9572 15.1347 15.7543 14.3377C16.5513 13.5406 16.9991 12.4596 16.9991 11.3325C16.9991 10.2053 16.5513 9.1243 15.7543 8.32727C14.9572 7.53024 13.8762 7.08247 12.7491 7.08247C11.6219 7.08247 10.5409 7.53024 9.74386 8.32727C8.94683 9.1243 8.49906 10.2053 8.49906 11.3325C8.49906 12.4596 8.94683 13.5406 9.74386 14.3377C10.5409 15.1347 11.6219 15.5825 12.7491 15.5825ZM23.3741 19.8325C20.7816 19.8325 15.5824 21.1358 15.5824 23.7283V26.9158H31.1657V23.7283C31.1657 21.1358 25.9666 19.8325 23.3741 19.8325ZM12.7491 18.4158C9.44823 18.4158 2.8324 20.0733 2.8324 23.3741V26.9158H12.7491V23.7283C12.7491 22.5241 13.2166 20.4133 16.1066 18.8125C14.8741 18.5575 13.6841 18.4158 12.7491 18.4158Z" fill="black"/>
</svg>
