<svg
              width="18"
              height="18"
              viewBox="0 0 18 18"
              fill="none"
              xmlns="http://www.w3.org/2000/svg"
            >
              <path
                d="M6.5 0.5C8.22391 0.5 9.87721 1.18482 11.0962 2.40381C12.3152 3.62279 13 5.27609 13 7C13 8.61 12.41 10.09 11.44 11.23L11.71 11.5H12.5L17.5 16.5L16 18L11 13V12.21L10.73 11.94C9.59 12.91 8.11 13.5 6.5 13.5C4.77609 13.5 3.12279 12.8152 1.90381 11.5962C0.684819 10.3772 0 8.72391 0 7C0 5.27609 0.684819 3.62279 1.90381 2.40381C3.12279 1.18482 4.77609 0.5 6.5 0.5ZM6.5 2.5C4 2.5 2 4.5 2 7C2 9.5 4 11.5 6.5 11.5C9 11.5 11 9.5 11 7C11 4.5 9 2.5 6.5 2.5Z"
                fill="#737373"
              />
            </svg>